<?xml version="1.0" encoding="UTF-8"?>
<svg width="14px" height="14px" viewBox="0 0 14 14" version="1.1" xmlns="http://www.w3.org/2000/svg" xmlns:xlink="http://www.w3.org/1999/xlink">
    <title>Icon/Down</title>
    <g id="页面-1" stroke="none" stroke-width="1" fill="none" fill-rule="evenodd">
        <g id="商户管理-商户列表-默认筛选展开" transform="translate(-1334.000000, -317.000000)" fill="#FFFFFF" fill-rule="nonzero">
            <g id="编组-7" transform="translate(232.000000, 292.000000)">
                <g id="Group-52" transform="translate(1086.000000, 16.000000)">
                    <g id="Import" transform="translate(16.000000, 9.000000)">
                        <rect id="矩形" opacity="0" x="0" y="0" width="14" height="14"></rect>
                        <path d="M12.1447266,10.3550781 L11.4091797,10.3550781 C11.3517578,10.3550781 11.3039062,10.4029297 11.3039062,10.4603516 L11.3039062,11.3052734 L2.69472656,11.3052734 L2.69472656,2.69472656 L11.3052734,2.69472656 L11.3052734,3.53964844 C11.3052734,3.59707031 11.353125,3.64492187 11.4105469,3.64492187 L12.1460937,3.64492187 C12.2035156,3.64492187 12.2513672,3.5984375 12.2513672,3.53964844 L12.2513672,2.16972656 C12.2513672,1.93730469 12.0640625,1.75 11.8316406,1.75 L2.16972656,1.75 C1.93730469,1.75 1.75,1.93730469 1.75,2.16972656 L1.75,11.8302734 C1.75,12.0626953 1.93730469,12.25 2.16972656,12.25 L11.8302734,12.25 C12.0626953,12.25 12.25,12.0626953 12.25,11.8302734 L12.25,10.4603516 C12.25,10.4015625 12.2021484,10.3550781 12.1447266,10.3550781 Z M5.98862305,6.5078125 L10.2815918,6.5078125 L10.2815918,5.46875 C10.2815918,5.37714844 10.3882324,5.32519531 10.4593262,5.38261719 L12.3993652,6.91386719 C12.4554199,6.95761719 12.4554199,7.04238281 12.3993652,7.08613281 L10.4593262,8.61738281 C10.3868652,8.67480469 10.2815918,8.62285156 10.2815918,8.53125 L10.2815918,7.4921875 L5.98862305,7.4921875 C5.9284668,7.4921875 5.87924805,7.44296875 5.87924805,7.3828125 L5.87924805,6.6171875 C5.87924805,6.55703125 5.9284668,6.5078125 5.98862305,6.5078125 Z" id="形状"></path>
                    </g>
                </g>
            </g>
        </g>
    </g>
</svg>