<?xml version="1.0" encoding="UTF-8"?>
<svg width="24px" height="24px" viewBox="0 0 24 24" version="1.1" xmlns="http://www.w3.org/2000/svg" xmlns:xlink="http://www.w3.org/1999/xlink">
    <title>icon</title>
    <g id="页面-1" stroke="none" stroke-width="1" fill="none" fill-rule="evenodd">
        <g id="数据概览" transform="translate(-488.000000, -127.000000)" fill="#29D1CE" fill-rule="nonzero">
            <g id="终端数量" transform="translate(472.000000, 111.000000)">
                <g id="icon" transform="translate(16.000000, 16.000000)">
                    <circle id="椭圆形" opacity="0.133068266" cx="11.8916129" cy="11.8916129" r="11.8916129"></circle>
                    <g id="扫码-(2)" transform="translate(5.000000, 5.000000)">
                        <path d="M1.3125,1.3125 L1.3125,2.40625 C1.3125,2.76868686 1.01868687,3.0625 0.656250001,3.0625 C0.293813133,3.0625 0,2.76868686 0,2.40625 L0,0.656250001 C0,0.475125 0.0735000001,0.310625007 0.192499987,0.192499987 C0.310624987,0.0734999796 0.47512498,6.66133815e-16 0.656250001,6.66133815e-16 L2.40625,6.66133815e-16 C2.76868686,6.66133815e-16 3.0625,0.293813133 3.0625,0.656250001 C3.0625,1.01868687 2.76868686,1.3125 2.40625,1.3125 L1.3125,1.3125 Z M14,0.656250001 L14,2.40625 C14,2.76868686 13.7061869,3.0625 13.34375,3.0625 C12.9813131,3.0625 12.6875,2.76868686 12.6875,2.40625 L12.6875,1.3125 L11.59375,1.3125 C11.2313131,1.3125 10.9375,1.01868687 10.9375,0.656250001 C10.9375,0.293813133 11.2313131,0 11.59375,0 L13.34375,0 C13.5177983,0 13.6847181,0.0691404266 13.8077888,0.192211175 C13.9308596,0.315281924 14,0.482201679 14,0.656250001 L14,0.656250001 Z M13.8075,12.9325 C13.689375,13.0515 13.524875,13.125 13.34375,13.125 L11.59375,13.125 C11.2313131,13.125 10.9375,12.8311869 10.9375,12.46875 C10.9375,12.1063131 11.2313131,11.8125 11.59375,11.8125 L12.6875,11.8125 L12.6875,10.71875 C12.6875,10.3563131 12.9813131,10.0625 13.34375,10.0625 C13.7061869,10.0625 14,10.3563131 14,10.71875 L14,12.46875 C14,12.649875 13.9265,12.814375 13.8075,12.9325 L13.8075,12.9325 Z M1.3125,11.8125 L2.40625,11.8125 C2.76868686,11.8125 3.0625,12.1063131 3.0625,12.46875 C3.0625,12.8311869 2.76868686,13.125 2.40625,13.125 L0.656250001,13.125 C0.293813133,13.125 0,12.8311869 0,12.46875 L0,10.71875 C0,10.3563131 0.293813133,10.0625 0.656250001,10.0625 C1.01868687,10.0625 1.3125,10.3563131 1.3125,10.71875 L1.3125,11.8125 Z M10.9375,5.6875 L13.34375,5.6875 C13.7061869,5.6875 14,5.98131313 14,6.34375 C14,6.70618687 13.7061869,7 13.34375,7 L10.9375,7 L10.9375,10.0625 C10.9375,10.1785322 10.8914064,10.2898121 10.8093592,10.3718592 C10.7273121,10.4539064 10.6160322,10.5 10.5,10.5 L3.5,10.5 C3.38396777,10.5 3.27268794,10.4539064 3.19064077,10.3718592 C3.10859361,10.2898121 3.06249999,10.1785322 3.0625,10.0625 L3.0625,7 L0.656250001,7 C0.293813133,7 0,6.70618687 0,6.34375 C0,5.98131313 0.293813133,5.6875 0.656250001,5.6875 L3.0625,5.6875 L3.0625,3.0625 C3.0625,2.82087542 3.25837542,2.625 3.5,2.625 L10.5,2.625 C10.7416246,2.625 10.9375,2.82087542 10.9375,3.0625 L10.9375,5.6875 L10.9375,5.6875 Z M10.9375,5.6875 L3.0625,5.6875 L3.0625,7 L10.9375,7 L10.9375,5.6875 Z" id="形状"></path>
                    </g>
                </g>
            </g>
        </g>
    </g>
</svg>