<?xml version="1.0" encoding="UTF-8"?>
<svg width="24px" height="24px" viewBox="0 0 24 24" version="1.1" xmlns="http://www.w3.org/2000/svg" xmlns:xlink="http://www.w3.org/1999/xlink">
    <title>icon</title>
    <g id="页面-1" stroke="none" stroke-width="1" fill="none" fill-rule="evenodd">
        <g id="数据概览" transform="translate(-968.000000, -127.000000)" fill="#2FC25B" fill-rule="nonzero">
            <g id="编组-2" transform="translate(712.000000, 111.000000)">
                <g id="终端数量" transform="translate(240.000000, 0.000000)">
                    <g id="icon" transform="translate(16.000000, 16.000000)">
                        <circle id="椭圆形" opacity="0.133068266" cx="11.8916129" cy="11.8916129" r="11.8916129"></circle>
                        <g id="商户" transform="translate(5.000000, 5.000000)">
                            <path d="M13.8235903,4.81094979 C13.9201854,4.88328688 13.9828633,4.9920946 13.9969763,5.11194491 C14.0110893,5.23179522 13.9754008,5.3521861 13.898251,5.44498257 C13.7320884,5.63972916 13.4434231,5.67236976 13.2379703,5.51964329 L12.9708249,5.34699038 L12.9708249,12.7273187 C12.9708249,13.5363375 12.5876055,13.9994673 11.8544139,13.9994673 L2.52065802,13.9994673 C1.7775506,13.9994673 1.04260919,13.5019236 1.04260919,12.7273187 L1.04260919,5.34699038 L0.74921592,5.51906 C0.548403032,5.6732916 0.261467077,5.64052104 0.100600953,5.44498257 C0.0238648932,5.35182223 -0.011331988,5.23128032 0.00321773535,5.11146556 C0.0177674587,4.99165079 0.0807919662,4.88303641 0.177594815,4.81094979 L6.09270658,0.292226699 C6.6013327,-0.0974088998 7.40043567,-0.0974088998 7.90906178,0.292226699 L13.8235903,4.81094979 Z M9.03363879,9.94970678 C8.99747501,9.62306616 8.89773296,9.30984113 8.80499035,9.04911192 C8.5640929,8.36666632 8.24561829,7.69588646 7.96564061,7.1050169 C7.90891224,6.98433225 7.80641466,6.89124052 7.6808434,6.84635454 C7.55527214,6.80146856 7.41698803,6.80849186 7.29661061,6.86586929 C7.10995882,6.95569547 6.91222459,6.95569547 6.70749091,6.86586929 C6.64960384,6.83988809 6.58833666,6.82221487 6.52550542,6.81337348 C6.31610545,6.7947083 6.14870212,6.89386706 6.05595951,7.08635172 C5.9101378,7.38732772 5.76664924,7.68830373 5.63016012,7.99161288 C5.4452582,8.40166353 5.23877466,8.88987461 5.08770337,9.40666673 C5.01187608,9.67206224 4.97104601,9.88087893 4.95879698,10.0821129 L4.95879698,10.0920288 L4.96113013,10.1013614 C4.96579642,10.1299424 4.97104601,10.1579402 4.97337916,10.1888544 C4.98096189,10.2553491 4.99262762,10.3218438 5.01012623,10.3883385 C5.0777875,10.653734 5.23352508,10.895798 5.48667156,11.1279462 C5.8348938,11.4475874 6.26535948,11.7013171 6.84164688,11.9270491 C6.89361379,11.9476242 6.94907805,11.9579247 7.00496719,11.9574006 C7.06562902,11.9574006 7.12629086,11.9457143 7.18461953,11.9217996 C7.65708187,11.7368976 8.04613419,11.5193316 8.37685782,11.2580191 C8.60317312,11.0777835 8.77115973,10.8905484 8.88315079,10.686398 C9.01147389,10.456583 9.06280312,10.2081028 9.03363879,9.94970678 L9.03363879,9.94970678 Z M7.99013865,10.3457585 C7.89094674,10.4486965 7.78451681,10.5444055 7.67166404,10.6321524 C7.4745131,10.7814738 7.25053096,10.8928816 7.03879782,10.9902905 C7.0172162,10.9996231 7.0172162,11.0118721 6.978136,10.9926236 C6.71040734,10.8695501 6.43042966,10.7272281 6.19478178,10.5184114 C6.10790496,10.4385954 6.028806,10.3507077 5.95855062,10.2559324 C5.91285611,10.2002901 5.895032,10.1268462 5.9101378,10.0564483 L5.93171942,9.94504049 C5.95855062,9.81205109 5.9853818,9.67672854 6.02446203,9.54898873 C6.21403025,8.94470356 6.4770926,8.37074932 6.73257224,7.83295887 L7.27502899,7.83295887 C7.53284177,8.38066521 7.79765399,8.96336875 7.99013865,9.57057034 C8.01696985,9.65806337 8.03855146,9.75080597 8.05838321,9.84063214 C8.06771581,9.88087893 8.07529853,9.92112572 8.0852144,9.95903937 C8.12604448,10.1130271 8.09221384,10.2413502 7.99013865,10.3457585 L7.99013865,10.3457585 Z M7.00555047,6.41440529 C7.75157434,6.41440529 8.3558595,5.82761873 8.3558595,5.1031765 C8.3558595,4.37873425 7.75157434,3.7913644 7.00555047,3.7913644 C6.2601099,3.7913644 5.65524146,4.37873424 5.65524146,5.1031765 C5.65524146,5.82761874 6.2601099,6.41498858 7.00555047,6.41498858 L7.00555047,6.41440529 Z" id="形状"></path>
                        </g>
                    </g>
                </g>
            </g>
        </g>
    </g>
</svg>