<?xml version="1.0" encoding="UTF-8"?>
<svg width="24px" height="24px" viewBox="0 0 24 24" version="1.1" xmlns="http://www.w3.org/2000/svg" xmlns:xlink="http://www.w3.org/1999/xlink">
    <title>icon</title>
    <g id="页面-1" stroke="none" stroke-width="1" fill="none" fill-rule="evenodd">
        <g id="数据概览" transform="translate(-728.000000, -127.000000)" fill="#FB901B" fill-rule="nonzero">
            <g id="编组-2" transform="translate(712.000000, 111.000000)">
                <g id="icon" transform="translate(16.000000, 16.000000)">
                    <circle id="椭圆形" opacity="0.133068266" cx="11.8916129" cy="11.8916129" r="11.8916129"></circle>
                    <g id="销售额-(1)" transform="translate(6.000000, 5.000000)">
                        <path d="M5.79758354,8.20410377 L7.13730453,8.20410377 C7.38365121,8.20410377 7.58275332,8.00500166 7.58275332,7.75865498 C7.58275332,7.51230829 7.38365121,7.31320618 7.13730453,7.31320618 L5.98993642,7.31320618 L7.10862033,6.19452228 C7.28241285,6.02072976 7.28241285,5.73726235 7.10862033,5.56346982 C6.9348278,5.3896773 6.65136039,5.3896773 6.47756787,5.56346982 L5.43143813,6.60791226 L4.38530839,5.56346982 C4.21151586,5.3896773 3.92804845,5.3896773 3.75425593,5.56346982 C3.58046341,5.73726235 3.58046341,6.02072976 3.75425593,6.19452228 L4.87293983,7.31320618 L3.56527765,7.31320618 C3.31893097,7.31320618 3.11982886,7.51230829 3.11982886,7.75865498 C3.11982886,8.00500166 3.31893097,8.20410377 3.56527765,8.20410377 L4.90499864,8.20410377 L4.90499864,9.09668866 L3.56527765,9.09668866 C3.40667088,9.09668866 3.25818795,9.18105396 3.17888457,9.31941306 C3.09958119,9.45777215 3.09958119,9.62650276 3.17888457,9.76486185 C3.25818795,9.90322095 3.40498358,9.98758625 3.56527765,9.98758625 L4.90499864,9.98758625 L4.90499864,11.3897376 C4.90499864,11.507849 4.95224321,11.6208985 5.03492121,11.7052638 C5.11928651,11.7896291 5.23233601,11.8351864 5.35044744,11.8351864 L5.35213474,11.8351864 C5.47024617,11.8351864 5.58329567,11.7879418 5.66766097,11.7052638 C5.75202627,11.6208985 5.79758354,11.507849 5.79758354,11.3897376 L5.79758354,9.98758625 L7.13730453,9.98758625 C7.2959113,9.98758625 7.44439423,9.90322095 7.52369761,9.76486185 C7.60300099,9.62650276 7.60300099,9.45777215 7.52369761,9.31941306 C7.44439423,9.18105396 7.2975986,9.09668866 7.13730453,9.09668866 L5.79758354,9.09668866 L5.79758354,8.20410377 L5.79758354,8.20410377 Z M0.322275453,4.81430594 L4.780138,1.09885806 C5.11084998,0.823827172 5.5917322,0.823827172 5.92244418,1.09885806 L10.381994,4.81430594 C10.5861581,4.98303655 10.7025822,5.23444515 10.7025822,5.4993522 L10.7025822,13.1074151 C10.7025822,13.6001085 10.3026907,14 9.80999729,14 L0.892584893,14 C0.39989153,14 0,13.6001085 0,13.1074151 L0,5.4993522 C0,5.23444515 0.118111422,4.98472385 0.322275453,4.81430594 Z M6.27677845,0.44587062 L6.56530778,0.206273163 C6.89601977,-0.0687577209 7.37690199,-0.0687577209 7.70592666,0.206273163 L12.1654765,3.92172105 C12.3696405,4.09045166 12.4860647,4.34186025 12.4860647,4.6067673 L12.4860647,12.2148302 C12.4860647,12.7075236 12.0861731,13.1074151 11.5934798,13.1074151 L11.5934798,5.0539034 C11.5934798,4.78899635 11.4753683,4.53758775 11.2728916,4.36885715 L6.81334177,0.653409262 C6.66317153,0.526861309 6.47419326,0.45430715 6.27677845,0.44587062 Z" id="形状"></path>
                    </g>
                </g>
            </g>
        </g>
    </g>
</svg>