<?xml version="1.0" encoding="UTF-8"?>
<svg width="24px" height="24px" viewBox="0 0 24 24" version="1.1" xmlns="http://www.w3.org/2000/svg" xmlns:xlink="http://www.w3.org/1999/xlink">
    <title>icon</title>
    <g id="页面-1" stroke="none" stroke-width="1" fill="none" fill-rule="evenodd">
        <g id="数据概览" transform="translate(-246.000000, -127.000000)" fill-rule="nonzero">
            <g id="终端数量" transform="translate(230.000000, 111.000000)">
                <g id="icon" transform="translate(16.000000, 16.000000)">
                    <circle id="椭圆形" fill="#4B77F5" opacity="0.133068266" cx="11.8916129" cy="11.8916129" r="11.8916129"></circle>
                    <g id="商户or商店" transform="translate(5.000000, 5.000000)" fill="#2B5FF4">
                        <path d="M10.1205548,10.8927546 L3.87960085,10.8927546 C3.60522082,10.8927718 3.38220374,10.6714472 3.38013076,10.397075 C3.38013076,10.123892 3.60488805,9.90064745 3.87958385,9.90064745 L10.1205548,9.90064745 C10.3952506,9.90064745 10.6200079,10.123892 10.6200079,10.3967011 C10.6181394,10.6712129 10.395073,10.8927546 10.1205548,10.8927546 M12.1955866,7.14719643 C12.0567146,7.16393644 11.9169696,7.17239913 11.7770923,7.17253963 C11.0277181,7.17330246 10.2990687,6.92656132 9.70433823,6.4706469 C9.51865436,6.32649459 9.25888976,6.32649459 9.07320589,6.4706469 C8.47837382,6.92663937 7.74958008,7.17338487 7.00007783,7.17253963 C6.25056976,7.17338862 5.52176946,6.92664292 4.92693277,6.4706469 C4.74096472,6.32651111 4.48102058,6.32651111 4.29505254,6.4706469 C3.58694223,7.01294102 2.69437391,7.25585333 1.80910739,7.14719643 C1.66793493,7.12918552 1.52582178,7.17262962 1.41885095,7.26649813 C1.31188012,7.36036665 1.25034052,7.4956309 1.24985727,7.63794682 L1.24985727,11.8595187 C1.24985727,12.4145874 1.69143404,12.8648669 2.23705221,12.8648669 L11.7638513,12.8648669 C12.3087216,12.8648669 12.7502814,12.4146044 12.7502814,11.8595187 L12.7502814,7.63945959 C12.7502814,7.34356797 12.4907133,7.10973405 12.1955866,7.14755337 M13.8055851,2.99108178 L12.6954136,0.831674658 C12.4314159,0.319963861 11.9033742,-0.00109477444 11.3275778,3.1889173e-06 L2.67256089,3.1889173e-06 C2.09684646,-0.00116688619 1.56882528,0.319734933 1.30472504,0.831300714 L0.19457055,2.99070784 C-0.421808003,4.39221563 0.490462171,6.04914412 2.02667476,6.17249462 C2.88292602,6.24433793 3.71194329,5.85148948 4.19855801,5.14329898 C4.29201727,5.00736674 4.44640537,4.92615677 4.6113666,4.92615677 C4.77632783,4.92615677 4.93071592,5.00736674 5.02417518,5.14329898 C5.47132846,5.79386662 6.21065902,6.18193455 7.00007783,6.18043243 C7.78949063,6.18192894 8.52881359,5.79386165 8.97596348,5.14329898 C9.06918088,5.00689026 9.22374153,4.92530909 9.38895903,4.92530909 C9.55417654,4.92530909 9.70873719,5.00689026 9.80195459,5.14329898 C10.2885008,5.85136702 11.1173412,6.24419928 11.9734639,6.17249462 C13.5096935,6.04914412 14.4215727,4.39221563 13.8055851,2.99033389" id="形状"></path>
                    </g>
                </g>
            </g>
        </g>
    </g>
</svg>